G04 Layer_Color=16711935*
%FSLAX24Y24*%
%MOIN*%
G70*
G01*
G75*
%ADD26R,0.0671X0.0789*%
%ADD29C,0.0867*%
%ADD30C,0.0710*%
%ADD31C,0.0434*%
%ADD32C,0.1655*%
%ADD33R,0.0789X0.0671*%
D26*
X8012Y7031D02*
D03*
X6988D02*
D03*
D29*
X1969Y5299D02*
D03*
Y7299D02*
D03*
D30*
X9024Y13780D02*
D03*
X11024D02*
D03*
X12024D02*
D03*
X13024D02*
D03*
X10024D02*
D03*
X12024Y1969D02*
D03*
X11024D02*
D03*
X10024D02*
D03*
D31*
X9750Y7031D02*
D03*
X10250Y7282D02*
D03*
X14750D02*
D03*
X12250Y7531D02*
D03*
X11250Y7782D02*
D03*
X10750Y8781D02*
D03*
X14500Y12000D02*
D03*
X15500D02*
D03*
Y11000D02*
D03*
X4500Y2000D02*
D03*
X5500D02*
D03*
X6500D02*
D03*
X4500Y3000D02*
D03*
X5500D02*
D03*
X6500D02*
D03*
X14500Y4000D02*
D03*
X15500D02*
D03*
Y5000D02*
D03*
X14500D02*
D03*
Y11000D02*
D03*
X8500D02*
D03*
X9500D02*
D03*
Y12000D02*
D03*
X10500D02*
D03*
X4000Y14000D02*
D03*
X5000D02*
D03*
X6000D02*
D03*
X7000D02*
D03*
D32*
X1969Y1969D02*
D03*
Y13780D02*
D03*
X17717D02*
D03*
Y1969D02*
D03*
D33*
X4000Y7031D02*
D03*
Y6008D02*
D03*
X11250Y7043D02*
D03*
Y6020D02*
D03*
M02*
