G04 Layer_Color=32896*
%FSLAX24Y24*%
%MOIN*%
G70*
G01*
G75*
%ADD23C,0.0079*%
%ADD24C,0.0100*%
D23*
X3550Y5620D02*
X4450D01*
X3550Y7420D02*
X4450D01*
X3550Y5620D02*
Y7420D01*
X4450Y5620D02*
Y7420D01*
X6600Y6582D02*
Y7481D01*
X8400Y6582D02*
Y7481D01*
X6600D02*
X8400D01*
X6600Y6582D02*
X8400D01*
X10800Y5631D02*
X11700D01*
X10800Y7431D02*
X11700D01*
X10800Y5631D02*
Y7431D01*
X11700Y5631D02*
Y7431D01*
D24*
X11273Y8231D02*
X11365Y8322D01*
X11548D01*
X11640Y8231D01*
Y7863D01*
X11548Y7771D01*
X11365D01*
X11273Y7863D01*
X10722Y8322D02*
X11089D01*
Y8047D01*
X10905Y8139D01*
X10813D01*
X10722Y8047D01*
Y7863D01*
X10813Y7771D01*
X10997D01*
X11089Y7863D01*
X7973Y8281D02*
X8065Y8372D01*
X8248D01*
X8340Y8281D01*
Y7913D01*
X8248Y7821D01*
X8065D01*
X7973Y7913D01*
X7789Y8281D02*
X7697Y8372D01*
X7513D01*
X7422Y8281D01*
Y8189D01*
X7513Y8097D01*
X7605D01*
X7513D01*
X7422Y8005D01*
Y7913D01*
X7513Y7821D01*
X7697D01*
X7789Y7913D01*
X4023Y8221D02*
X4114Y8313D01*
X4298D01*
X4390Y8221D01*
Y7853D01*
X4298Y7761D01*
X4114D01*
X4023Y7853D01*
X3839Y7761D02*
X3655D01*
X3747D01*
Y8313D01*
X3839Y8221D01*
X13500Y5051D02*
Y4500D01*
X13225D01*
X13133Y4592D01*
Y4959D01*
X13225Y5051D01*
X13500D01*
X12673Y4500D02*
X12857D01*
X12949Y4592D01*
Y4775D01*
X12857Y4867D01*
X12673D01*
X12582Y4775D01*
Y4684D01*
X12949D01*
X12398Y4500D02*
X12122D01*
X12031Y4592D01*
X12122Y4684D01*
X12306D01*
X12398Y4775D01*
X12306Y4867D01*
X12031D01*
X11847Y4500D02*
X11663D01*
X11755D01*
Y4867D01*
X11847D01*
X11204Y4316D02*
X11112D01*
X11020Y4408D01*
Y4867D01*
X11296D01*
X11388Y4775D01*
Y4592D01*
X11296Y4500D01*
X11020D01*
X10837D02*
Y4867D01*
X10561D01*
X10469Y4775D01*
Y4500D01*
X10010D02*
X10194D01*
X10286Y4592D01*
Y4775D01*
X10194Y4867D01*
X10010D01*
X9918Y4775D01*
Y4684D01*
X10286D01*
X9367Y5051D02*
Y4500D01*
X9643D01*
X9735Y4592D01*
Y4775D01*
X9643Y4867D01*
X9367D01*
X8633Y5051D02*
Y4500D01*
X8357D01*
X8265Y4592D01*
Y4684D01*
Y4775D01*
X8357Y4867D01*
X8633D01*
X8082D02*
Y4592D01*
X7990Y4500D01*
X7714D01*
Y4408D01*
X7806Y4316D01*
X7898D01*
X7714Y4500D02*
Y4867D01*
X12500Y3500D02*
Y3867D01*
X12408D01*
X12316Y3776D01*
Y3500D01*
Y3776D01*
X12225Y3867D01*
X12133Y3776D01*
Y3500D01*
X11949D02*
Y4051D01*
Y3684D02*
X11674Y3867D01*
X11949Y3684D02*
X11674Y3500D01*
X11306D02*
X11122D01*
X11031Y3592D01*
Y3776D01*
X11122Y3867D01*
X11306D01*
X11398Y3776D01*
Y3592D01*
X11306Y3500D01*
X10847D02*
Y3867D01*
X10755D01*
X10663Y3776D01*
Y3500D01*
Y3776D01*
X10571Y3867D01*
X10480Y3776D01*
Y3500D01*
X9929D02*
X10296D01*
X9929Y3867D01*
Y3959D01*
X10020Y4051D01*
X10204D01*
X10296Y3959D01*
X9378Y4051D02*
X9561Y3959D01*
X9745Y3776D01*
Y3592D01*
X9653Y3500D01*
X9469D01*
X9378Y3592D01*
Y3684D01*
X9469Y3776D01*
X9745D01*
X13500Y10051D02*
Y9500D01*
X13225D01*
X13133Y9592D01*
Y9684D01*
X13225Y9776D01*
X13500D01*
X13225D01*
X13133Y9867D01*
Y9959D01*
X13225Y10051D01*
X13500D01*
X12949D02*
Y9500D01*
X12582D01*
X12398Y10051D02*
Y9500D01*
X12122D01*
X12031Y9592D01*
Y9959D01*
X12122Y10051D01*
X12398D01*
X11480Y9959D02*
X11571Y10051D01*
X11755D01*
X11847Y9959D01*
Y9592D01*
X11755Y9500D01*
X11571D01*
X11480Y9592D01*
X10378Y10051D02*
Y9500D01*
X10653D01*
X10745Y9592D01*
Y9776D01*
X10653Y9867D01*
X10378D01*
X10194D02*
Y9500D01*
Y9684D01*
X10102Y9776D01*
X10010Y9867D01*
X9918D01*
X9643Y9500D02*
X9459D01*
X9551D01*
Y9867D01*
X9643D01*
X9184D02*
X9000Y9500D01*
X8816Y9867D01*
X8357Y9500D02*
X8541D01*
X8633Y9592D01*
Y9776D01*
X8541Y9867D01*
X8357D01*
X8265Y9776D01*
Y9684D01*
X8633D01*
X8082Y9867D02*
Y9500D01*
Y9684D01*
X7990Y9776D01*
X7898Y9867D01*
X7806D01*
M02*
