M48
;Layer_Color=9474304
;FILE_FORMAT=2:4
INCH,LZ
;TYPE=PLATED
T1F00S00C0.0197
T2F00S00C0.0394
T3F00S00C0.0551
T4F00S00C0.1181
%
T01
X0045Y002
X0055
Y003
X0045
X0065
Y002
X00975Y007031
X01025Y007282
X01125Y007782
X01225Y007531
X01475Y007282
X0145Y005
Y004
X0155
Y005
Y011
Y012
X0145
Y011
X0095
X0085
X0095Y012
X0105
X01075Y008781
X007Y014
X006
X005
X004
T02
X010024Y001969
X011024
X012024
Y01378
X011024
X010024
X009024
X013024
T03
X001969Y005299
Y007299
T04
X001969Y001969
X017717
Y01378
X001969
M30
