%FSTAX24Y24*%
%MOIN*%
%SFA1B1*%

%IPPOS*%
%ADD25R,0.073000X0.128100*%
%ADD26R,0.067100X0.078900*%
%ADD27R,0.088700X0.033600*%
%ADD28R,0.023700X0.039500*%
%ADD29C,0.086700*%
%ADD30C,0.071000*%
%ADD31C,0.043400*%
%ADD32C,0.165500*%
%LNbldc_driver-1*%
%LPD*%
G54D25*
X005512Y00747D03*
Y005128D03*
G54D26*
X016654Y007677D03*
X01563D03*
G54D27*
X013612Y005624D03*
Y006124D03*
Y006624D03*
Y007124D03*
Y007624D03*
Y008124D03*
Y008624D03*
Y009124D03*
Y009624D03*
Y010124D03*
X008435Y005624D03*
Y006124D03*
Y006624D03*
Y007124D03*
Y007624D03*
Y008124D03*
Y008624D03*
Y009124D03*
Y009624D03*
Y010124D03*
G54D28*
X017323Y005846D03*
Y006752D03*
Y008602D03*
Y009508D03*
G54D29*
X001969Y005299D03*
Y007299D03*
G54D30*
X009024Y01378D03*
X011024D03*
X012024D03*
X013024D03*
X010024D03*
X012024Y001969D03*
X011024D03*
X010024D03*
G54D31*
X00975Y007031D03*
X01025Y007282D03*
X01475D03*
X01225Y007531D03*
X01125Y007782D03*
X01075Y008781D03*
X0145Y012D03*
X0155D03*
Y011D03*
X0045Y002D03*
X0055D03*
X0065D03*
X0045Y003D03*
X0055D03*
X0065D03*
X0145Y004D03*
X0155D03*
Y005D03*
X0145D03*
Y011D03*
X0085D03*
X0095D03*
Y012D03*
X0105D03*
X004Y014D03*
X005D03*
X006D03*
X007D03*
G54D32*
X001969Y001969D03*
Y01378D03*
X017717D03*
Y001969D03*
M02*