%FSTAX24Y24*%
%MOIN*%
%SFA1B1*%

%IPPOS*%
%ADD20C,0.009800*%
%ADD21C,0.023600*%
%ADD22C,0.003900*%
%ADD23C,0.007900*%
%ADD24C,0.010000*%
%LNbldc_driver-1*%
%LPD*%
G54D20*
X008484Y010468D02*
D01*
X008483Y010471*
X008483Y010474*
X008482Y010478*
X008482Y010481*
X008481Y010484*
X008479Y010487*
X008478Y010491*
X008476Y010493*
X008474Y010496*
X008472Y010499*
X00847Y010502*
X008467Y010504*
X008465Y010506*
X008462Y010508*
X008459Y01051*
X008456Y010512*
X008453Y010513*
X00845Y010514*
X008446Y010515*
X008443Y010516*
X00844Y010516*
X008436Y010516*
X008433*
X008429Y010516*
X008426Y010516*
X008423Y010515*
X008419Y010514*
X008416Y010513*
X008413Y010512*
X00841Y01051*
X008407Y010508*
X008404Y010506*
X008402Y010504*
X008399Y010502*
X008397Y010499*
X008395Y010496*
X008393Y010493*
X008391Y010491*
X00839Y010487*
X008388Y010484*
X008387Y010481*
X008387Y010478*
X008386Y010474*
X008386Y010471*
X008386Y010468*
X008386Y010464*
X008386Y010461*
X008387Y010457*
X008387Y010454*
X008388Y010451*
X00839Y010448*
X008391Y010444*
X008393Y010442*
X008395Y010439*
X008397Y010436*
X008399Y010433*
X008402Y010431*
X008404Y010429*
X008407Y010427*
X00841Y010425*
X008413Y010423*
X008416Y010422*
X008419Y010421*
X008423Y01042*
X008426Y010419*
X008429Y010419*
X008433Y010419*
X008436*
X00844Y010419*
X008443Y010419*
X008446Y01042*
X00845Y010421*
X008453Y010422*
X008456Y010423*
X008459Y010425*
X008462Y010427*
X008465Y010429*
X008467Y010431*
X00847Y010433*
X008472Y010436*
X008474Y010439*
X008476Y010442*
X008478Y010444*
X008479Y010448*
X008481Y010451*
X008482Y010454*
X008482Y010457*
X008483Y010461*
X008483Y010464*
X008484Y010468*
G54D21*
X009892Y010124D02*
D01*
X009891Y010132*
X00989Y01014*
X009889Y010148*
X009887Y010156*
X009884Y010164*
X009881Y010171*
X009878Y010179*
X009874Y010186*
X009869Y010193*
X009864Y010199*
X009858Y010205*
X009852Y010211*
X009846Y010216*
X009839Y010221*
X009833Y010226*
X009825Y01023*
X009818Y010233*
X00981Y010236*
X009802Y010238*
X009794Y01024*
X009786Y010241*
X009778Y010241*
X009769*
X009761Y010241*
X009753Y01024*
X009745Y010238*
X009737Y010236*
X009729Y010233*
X009722Y01023*
X009715Y010226*
X009708Y010221*
X009701Y010216*
X009695Y010211*
X009689Y010205*
X009683Y010199*
X009678Y010193*
X009673Y010186*
X009669Y010179*
X009666Y010171*
X009663Y010164*
X00966Y010156*
X009658Y010148*
X009657Y01014*
X009656Y010132*
X009656Y010124*
X009656Y010115*
X009657Y010107*
X009658Y010099*
X00966Y010091*
X009663Y010083*
X009666Y010076*
X009669Y010068*
X009673Y010061*
X009678Y010054*
X009683Y010048*
X009689Y010042*
X009695Y010036*
X009701Y010031*
X009708Y010026*
X009715Y010021*
X009722Y010017*
X009729Y010014*
X009737Y010011*
X009745Y010009*
X009753Y010007*
X009761Y010006*
X009769Y010006*
X009778*
X009786Y010006*
X009794Y010007*
X009802Y010009*
X00981Y010011*
X009818Y010014*
X009825Y010017*
X009833Y010021*
X009839Y010026*
X009846Y010031*
X009852Y010036*
X009858Y010042*
X009864Y010048*
X009869Y010054*
X009874Y010061*
X009878Y010068*
X009881Y010076*
X009884Y010083*
X009887Y010091*
X009889Y010099*
X00989Y010107*
X009891Y010115*
X009892Y010124*
G54D22*
X017146Y00687D02*
D01*
X017145Y006871*
X017145Y006872*
X017145Y006874*
X017145Y006875*
X017144Y006876*
X017144Y006878*
X017143Y006879*
X017142Y00688*
X017142Y006881*
X017141Y006882*
X01714Y006883*
X017139Y006884*
X017138Y006885*
X017137Y006886*
X017136Y006887*
X017134Y006887*
X017133Y006888*
X017132Y006889*
X01713Y006889*
X017129Y006889*
X017128Y006889*
X017126Y006889*
X017125*
X017123Y006889*
X017122Y006889*
X017121Y006889*
X017119Y006889*
X017118Y006888*
X017117Y006887*
X017116Y006887*
X017114Y006886*
X017113Y006885*
X017112Y006884*
X017111Y006883*
X01711Y006882*
X017109Y006881*
X017109Y00688*
X017108Y006879*
X017107Y006878*
X017107Y006876*
X017106Y006875*
X017106Y006874*
X017106Y006872*
X017106Y006871*
X017106Y00687*
X017106Y006868*
X017106Y006867*
X017106Y006865*
X017106Y006864*
X017107Y006863*
X017107Y006861*
X017108Y00686*
X017109Y006859*
X017109Y006858*
X01711Y006857*
X017111Y006856*
X017112Y006855*
X017113Y006854*
X017114Y006853*
X017116Y006852*
X017117Y006852*
X017118Y006851*
X017119Y00685*
X017121Y00685*
X017122Y00685*
X017123Y00685*
X017125Y00685*
X017126*
X017128Y00685*
X017129Y00685*
X01713Y00685*
X017132Y00685*
X017133Y006851*
X017134Y006852*
X017136Y006852*
X017137Y006853*
X017138Y006854*
X017139Y006855*
X01714Y006856*
X017141Y006857*
X017142Y006858*
X017142Y006859*
X017143Y00686*
X017144Y006861*
X017144Y006863*
X017145Y006864*
X017145Y006865*
X017145Y006867*
X017145Y006868*
X017146Y00687*
Y009626D02*
D01*
X017145Y009627*
X017145Y009628*
X017145Y00963*
X017145Y009631*
X017144Y009632*
X017144Y009634*
X017143Y009635*
X017142Y009636*
X017142Y009637*
X017141Y009638*
X01714Y009639*
X017139Y00964*
X017138Y009641*
X017137Y009642*
X017136Y009643*
X017134Y009643*
X017133Y009644*
X017132Y009645*
X01713Y009645*
X017129Y009645*
X017128Y009645*
X017126Y009645*
X017125*
X017123Y009645*
X017122Y009645*
X017121Y009645*
X017119Y009645*
X017118Y009644*
X017117Y009643*
X017116Y009643*
X017114Y009642*
X017113Y009641*
X017112Y00964*
X017111Y009639*
X01711Y009638*
X017109Y009637*
X017109Y009636*
X017108Y009635*
X017107Y009634*
X017107Y009632*
X017106Y009631*
X017106Y00963*
X017106Y009628*
X017106Y009627*
X017106Y009626*
X017106Y009624*
X017106Y009623*
X017106Y009621*
X017106Y00962*
X017107Y009619*
X017107Y009617*
X017108Y009616*
X017109Y009615*
X017109Y009614*
X01711Y009613*
X017111Y009612*
X017112Y009611*
X017113Y00961*
X017114Y009609*
X017116Y009608*
X017117Y009608*
X017118Y009607*
X017119Y009606*
X017121Y009606*
X017122Y009606*
X017123Y009606*
X017125Y009606*
X017126*
X017128Y009606*
X017129Y009606*
X01713Y009606*
X017132Y009606*
X017133Y009607*
X017134Y009608*
X017136Y009608*
X017137Y009609*
X017138Y00961*
X017139Y009611*
X01714Y009612*
X017141Y009613*
X017142Y009614*
X017142Y009615*
X017143Y009616*
X017144Y009617*
X017144Y009619*
X017145Y00962*
X017145Y009621*
X017145Y009623*
X017145Y009624*
X017146Y009626*
G54D23*
X001969Y008499D02*
Y01063D01*
X002756Y011417*
X00315*
X006299*
X00315Y009843D02*
Y01063D01*
Y009843D02*
X006299D01*
Y012992*
X00315D02*
X006299D01*
X00315Y01063D02*
Y012992D01*
X005955Y007795D02*
X006344D01*
X00685Y007288*
X004173D02*
X00468Y007795D01*
X005069*
X00685Y004803D02*
Y007288D01*
X005955Y004803D02*
X00685D01*
X004173D02*
X005069D01*
X004173D02*
Y007288D01*
X015242Y007227D02*
Y008127D01*
X017042Y007227D02*
Y008127D01*
X015242Y007227D02*
X017042D01*
X015242Y008127D02*
X017042D01*
X008996Y010346D02*
X009673Y011024D01*
X008996Y004724D02*
Y010346D01*
Y004724D02*
X013051D01*
Y011024*
X010524Y010374D02*
X011524D01*
X010524D02*
Y011024D01*
X009673D02*
X013051D01*
X011524Y010374D02*
Y011024D01*
Y004724D02*
Y005374D01*
X010524D02*
X011524D01*
X010524Y004724D02*
Y005374D01*
X017047Y005945D02*
Y006654D01*
X017598Y005945D02*
Y006654D01*
X017047Y005945D02*
X017126D01*
X017047Y006654D02*
X017126D01*
X01752Y005945D02*
X017598D01*
X01752Y006654D02*
X017598D01*
X017047Y008701D02*
Y009409D01*
X017598Y008701D02*
Y009409D01*
X017047Y008701D02*
X017126D01*
X017047Y009409D02*
X017126D01*
X01752Y008701D02*
X017598D01*
X01752Y009409D02*
X017598D01*
X000668Y004799D02*
X000969D01*
Y005799*
X000668D02*
X000969D01*
X000668Y006799D02*
X000969D01*
Y007799*
X000668D02*
X000969D01*
X000668Y004099D02*
Y008499D01*
Y004099D02*
X003618D01*
Y008499*
X000668D02*
X003618D01*
X008524Y01328D02*
Y01428D01*
X013524*
Y01328D02*
Y01428D01*
X008524Y01328D02*
X013524D01*
X012524D02*
Y01428D01*
X011524Y01328D02*
Y01428D01*
X010524Y01328D02*
Y01428D01*
X009524Y01328D02*
Y01428D01*
X010524Y001469D02*
Y002468D01*
X009524D02*
X012524D01*
Y001469D02*
Y002468D01*
X009524Y001469D02*
X012524D01*
X009524D02*
Y002468D01*
X011524Y001469D02*
Y002468D01*
X004304Y010695D02*
X004213Y010787D01*
X004029*
X003937Y010695*
Y010328*
X004029Y010236*
X004213*
X004304Y010328*
Y010512*
X004121*
X004488Y010236D02*
Y010787D01*
X004855Y010236*
Y010787*
X005039D02*
Y010236D01*
X005315*
X005406Y010328*
Y010695*
X005315Y010787*
X005039*
X003937Y012362D02*
Y011995D01*
X004121Y011811*
X004304Y011995*
Y012362*
X004855Y01227D02*
X004764Y012362D01*
X00458*
X004488Y01227*
Y011903*
X00458Y011811*
X004764*
X004855Y011903*
X005406Y01227D02*
X005315Y012362D01*
X005131*
X005039Y01227*
Y011903*
X005131Y011811*
X005315*
X005406Y011903*
X01299Y011785D02*
X012898Y011693D01*
Y011509*
X01299Y011417*
X013357*
X013449Y011509*
Y011693*
X013357Y011785*
X013173*
Y011601*
X013449Y011968D02*
X012898D01*
X013449Y012336*
X012898*
Y012519D02*
X013449D01*
Y012795*
X013357Y012887*
X01299*
X012898Y012795*
Y012519*
X011898Y011785D02*
Y011417D01*
X012449*
Y011785*
X012173Y011417D02*
Y011601D01*
X012449Y011968D02*
X011898D01*
X012449Y012336*
X011898*
X010898Y011417D02*
Y011601D01*
Y011509*
X011449*
Y011417*
Y011601*
Y011876D02*
X010898D01*
X011449Y012244*
X010898*
X01099Y012427D02*
X010898Y012519D01*
Y012703*
X01099Y012795*
X011081*
X011173Y012703*
Y012611*
Y012703*
X011265Y012795*
X011357*
X011449Y012703*
Y012519*
X011357Y012427*
X009898Y011417D02*
Y011601D01*
Y011509*
X010449*
Y011417*
Y011601*
Y011876D02*
X009898D01*
X010449Y012244*
X009898*
X010449Y012795D02*
Y012427D01*
X010081Y012795*
X00999*
X009898Y012703*
Y012519*
X00999Y012427*
X008898Y011417D02*
Y011601D01*
Y011509*
X009449*
Y011417*
Y011601*
Y011876D02*
X008898D01*
X009449Y012244*
X008898*
X009449Y012427D02*
Y012611D01*
Y012519*
X008898*
X00899Y012427*
G54D24*
X013Y002051D02*
X013367Y0015D01*
Y002051D02*
X013Y0015D01*
X013551Y001959D02*
X013643Y002051D01*
X013827*
X013918Y001959*
Y001867*
X013827Y001776*
X013735*
X013827*
X013918Y001684*
Y001592*
X013827Y0015*
X013643*
X013551Y001592*
X014Y014051D02*
X014367Y0135D01*
Y014051D02*
X014Y0135D01*
X014918D02*
X014551D01*
X014918Y013867*
Y013959*
X014827Y014051*
X014643*
X014551Y013959*
X00073Y009413D02*
X001097Y008862D01*
Y009413D02*
X00073Y008862D01*
X001281D02*
X001465D01*
X001373*
Y009413*
X001281Y009321*
X017953Y008268D02*
X01832D01*
X018504Y008451*
X01832Y008635*
X017953*
Y008819D02*
X018504D01*
Y009094*
X018412Y009186*
X018045*
X017953Y009094*
Y008819*
X018504Y009737D02*
Y00937D01*
X018137Y009737*
X018045*
X017953Y009645*
Y009462*
X018045Y00937*
X017953Y005512D02*
X01832D01*
X018504Y005695*
X01832Y005879*
X017953*
Y006063D02*
X018504D01*
Y006338*
X018412Y00643*
X018045*
X017953Y006338*
Y006063*
X018504Y006614D02*
Y006797D01*
Y006706*
X017953*
X018045Y006614*
X01063Y01D02*
Y009449D01*
X010905*
X010997Y009541*
Y009908*
X010905Y01*
X01063*
X011181Y009449D02*
Y009816D01*
X011365Y01*
X011548Y009816*
Y009449*
Y009724*
X011181*
X011732Y009449D02*
X011916D01*
X011824*
Y01*
X011732Y009908*
X015667Y008931D02*
X015575Y009022D01*
X015392*
X0153Y008931*
Y008563*
X015392Y008472*
X015575*
X015667Y008563*
X016127Y008472D02*
Y009022D01*
X015851Y008747*
X016218*
X004437Y009041D02*
X004345Y009133D01*
X004162*
X00407Y009041*
Y008673*
X004162Y008582*
X004345*
X004437Y008673*
X004988Y008582D02*
X004621D01*
X004988Y008949*
Y009041*
X004897Y009133*
X004713*
X004621Y009041*
X01Y003551D02*
Y003D01*
X010275*
X010367Y003092*
Y003184*
X010275Y003275*
X01*
X010275*
X010367Y003367*
Y003459*
X010275Y003551*
X01*
X010551D02*
Y003D01*
X010918*
X011102Y003551D02*
Y003D01*
X011378*
X011469Y003092*
Y003459*
X011378Y003551*
X011102*
X01202Y003459D02*
X011929Y003551D01*
X011745*
X011653Y003459*
Y003092*
X011745Y003*
X011929*
X01202Y003092*
M02*